<svg xmlns="http://www.w3.org/2000/svg" width="20" height="20" viewBox="0 0 20 20">
  <path d="M16.23,14.22a.514.514,0,0,0-.15.37.523.523,0,0,0,.16.37.89.89,0,0,1-.63,1.52h0a.877.877,0,0,1-.63-.26,2.33,2.33,0,0,1,0-3.28l1.1-1.1a.535.535,0,0,0-.38-.85.5.5,0,0,0-.39.12l-1.08,1.08a2.33,2.33,0,0,1-3.28,0L9.56,10.8a4.339,4.339,0,0,1-5.49-.57L2.48,8.63l-.03.04a.9.9,0,0,1-1.26,0,.887.887,0,0,1,0-1.26L2.27,6.33.26,4.31a.887.887,0,0,1,0-1.26.906.906,0,0,1,1.26,0L3.53,5.06,5.06,3.53,3.05,1.52a.9.9,0,0,1,0-1.27.906.906,0,0,1,1.26,0L6.32,2.26,7.41,1.18a.887.887,0,0,1,1.26,0,.893.893,0,0,1,0,1.26l-.01.03,1.59,1.59A4.358,4.358,0,0,1,11.52,6.9a.892.892,0,0,1-.83.94A.912.912,0,0,1,9.74,7a2.609,2.609,0,0,0-.75-1.68L7.39,3.73,3.73,7.38,5.35,9.01a2.576,2.576,0,0,0,1.8.73h0a2.572,2.572,0,0,0,1.83-.76.877.877,0,0,1,.63-.26h0a.939.939,0,0,1,.63.26l1.96,1.97a.544.544,0,0,0,.75,0l1.1-1.1a2.319,2.319,0,0,1,3.28,3.28Z" />
</svg>
