<svg viewBox="0 0 24 24">
  <path d="M9.66,6.63a.83.83,0,1,1,.83.83A.828.828,0,0,1,9.66,6.63ZM16.5,3.15V14.5a1.928,1.928,0,0,1-1.8,2H1.81A1.925,1.925,0,0,1,0,14.49V3.14A1.92,1.92,0,0,1,1.81,1.15h.64V.79A.771.771,0,0,1,3.17,0a.774.774,0,0,1,.76.8v.35h.45V.79A.755.755,0,0,1,5.09,0a.778.778,0,0,1,.75.8v.35h4.85V.79a.748.748,0,0,1,.7-.79.8.8,0,0,1,.76.79v.37h.45V.69a.733.733,0,0,1,1.46.12v.34h.64A1.908,1.908,0,0,1,16.5,3.15ZM9.34,6.62a.744.744,0,0,1-.69.75H1.46V14.5a.391.391,0,0,0,.37.41H14.67a.387.387,0,0,0,.36-.4V7.37h-2.5a.746.746,0,0,1-.69-.76.737.737,0,0,1,.69-.75h2.5V3.14a.391.391,0,0,0-.37-.41h-.62v.41a.73.73,0,1,1-1.46,0V2.73h-.45v.41a.73.73,0,1,1-1.46,0V2.73H5.83v.41a.73.73,0,0,1-1.46,0V2.73H3.92v.41a.753.753,0,0,1-.72.73.762.762,0,0,1-.74-.72V2.73H1.83a.387.387,0,0,0-.36.4V5.85H8.63a.749.749,0,0,1,.52.24A.712.712,0,0,1,9.34,6.62Z" />
</svg>
