<svg xmlns="http://www.w3.org/2000/svg" width="20" height="20" viewBox="0 0 20 20">
  <path fill="#00305e" d="M10.35,9.5a.871.871,0,0,1-.87.87h0a.87.87,0,1,1,.87-.87Zm1.59-.87a.87.87,0,0,0,0,1.74h0a.87.87,0,0,0,0-1.74Zm0-2.46a.87.87,0,0,0,0,1.74h0a.87.87,0,0,0,0-1.74Zm-2.46,0a.87.87,0,0,0,0,1.74h0a.87.87,0,0,0,0-1.74Zm4.27-4.9h-.56V.9a.89.89,0,0,0-.87-.9.952.952,0,0,0-.62.25.832.832,0,0,0-.26.61v.41H9.09V.9A.875.875,0,1,0,7.34.86v.41H5.03V.88A.885.885,0,0,0,4.2.05a.917.917,0,0,0-.63.22.887.887,0,0,0-.29.62v.37H2.75A2.776,2.776,0,0,0,0,4.02v9.75a2.748,2.748,0,0,0,2.75,2.75l9.49-.01a.842.842,0,0,0,.61-.27.859.859,0,0,0,.24-.63.908.908,0,0,0-.86-.85l-9.48.01a1,1,0,0,1-1-1V4.02a1,1,0,0,1,1-1h.53v.39a.9.9,0,0,0,.9.84.885.885,0,0,0,.85-.86V3.02H7.34v.37a.891.891,0,0,0,.24.63.9.9,0,0,0,.63.28h.01a.875.875,0,0,0,.87-.86V3.02h2.34V3.4a.873.873,0,0,0,.87.88.822.822,0,0,0,.62-.25.832.832,0,0,0,.26-.61v-.4h.56a1,1,0,0,1,1,1v7.1a.873.873,0,0,0,.87.88.808.808,0,0,0,.62-.25.832.832,0,0,0,.26-.61V4A2.736,2.736,0,0,0,13.75,1.27ZM9.48,11.09a.87.87,0,0,0,0,1.74h0a.87.87,0,0,0,0-1.74Zm-4.92,0a.87.87,0,1,0,0,1.74h0a.87.87,0,1,0,0-1.74Zm0-4.92a.87.87,0,0,0,0,1.74h0a.87.87,0,0,0,0-1.74ZM7.02,8.63a.87.87,0,0,0,0,1.74h0a.87.87,0,1,0,0-1.74Zm-2.46,0a.87.87,0,1,0,0,1.74h0a.87.87,0,1,0,0-1.74Zm2.46,2.46a.87.87,0,1,0,0,1.74h0a.87.87,0,0,0,0-1.74Zm0-4.92a.87.87,0,0,0,0,1.74h0a.87.87,0,0,0,0-1.74Z" />
</svg>
