<svg id="icon-financeiro" xmlns="http://www.w3.org/2000/svg" width="24" height="24" viewBox="0 0 24 24">
  <rect id="Retângulo_132" data-name="Retângulo 132" width="24" height="24" fill="none"/>
  <g id="Grupo_402" data-name="Grupo 402" transform="translate(2 2)">
    <path id="Caminho_445" data-name="Caminho 445" d="M10.92,9.43H9.63a1.044,1.044,0,0,1-1.12-.97,1.05,1.05,0,0,1,.96-1.12h2.69A.852.852,0,0,0,13,6.5a.834.834,0,0,0-.83-.83H11.12V4.61a.843.843,0,0,0-.83-.84.86.86,0,0,0-.85.84V5.67a2.733,2.733,0,0,0,.22,5.45h1.26a1.05,1.05,0,0,1,0,2.1H8.39a.83.83,0,1,0,0,1.66H9.44v1.05a.824.824,0,0,0,.24.59.834.834,0,0,0,.59.25h.01a.828.828,0,0,0,.83-.83V14.88a2.732,2.732,0,0,0-.19-5.45Z" fill="#8a97b1"/>
    <path id="Caminho_446" data-name="Caminho 446" d="M17.53,3.03A10.25,10.25,0,1,0,2.97,17.46a10.155,10.155,0,0,0,7.23,3.03h.05a10.152,10.152,0,0,0,7.21-2.97l.06-.06A10.276,10.276,0,0,0,17.53,3.03Zm1.33,7.24a8.58,8.58,0,1,1-8.58-8.58A8.617,8.617,0,0,1,18.86,10.27Z" fill="#8a97b1"/>
  </g>
</svg>
