<svg id="icon-corporativo" xmlns="http://www.w3.org/2000/svg" width="24" height="24" viewBox="0 0 24 24">
  <rect id="Retângulo_135" data-name="Retângulo 135" width="24" height="24" fill="none"/>
  <path id="Caminho_450" data-name="Caminho 450" d="M21.09,1.04a.546.546,0,0,0-.38-.16,13.7,13.7,0,0,0-5.48.93.557.557,0,0,0-.29.33.367.367,0,0,0-.01.18c-.65-.25-1.49-.58-2.33-.96a3.25,3.25,0,0,0-3.8.39H5.4a2.931,2.931,0,0,0,.05-.29.527.527,0,0,0-.17-.44C4.58.35,2.03.09.57,0H.54A.545.545,0,0,0,0,.51V8.44a.538.538,0,0,0,.54.54H3.17a.537.537,0,0,0,.51-.37c.02-.06.03-.12.05-.18.07.08.14.14.22.23.4.42.81.84,1.08,1.07,1.64,1.37,3.6,2.85,4,3.11a3.52,3.52,0,0,0,1.6.52h.11a1.653,1.653,0,0,0,.91-.28,1.492,1.492,0,0,0,1.02-.03,1.8,1.8,0,0,0,.93-.83,1.862,1.862,0,0,0,1.09-.18,1.562,1.562,0,0,0,.75-.75,1.562,1.562,0,0,0,1.01-.38,1.462,1.462,0,0,0,.51-1.36l.52-.35a2.582,2.582,0,0,1,.08.26.546.546,0,0,0,.52.4h2.63a.538.538,0,0,0,.54-.54V1.42A.594.594,0,0,0,21.09,1.04Zm-5.78,9.14H15.3c-.36-.31-1.7-1.67-2.54-2.55a.582.582,0,0,0-.38-.17h-.01a.514.514,0,0,0-.37.15.547.547,0,0,0-.02.76c.08.08,1.7,1.78,2.43,2.46a.452.452,0,0,1-.24.25.564.564,0,0,1-.56.03c-.01-.01-.02-.01-.03-.02h0c-.53-.43-1.89-1.87-2.13-2.14a.538.538,0,0,0-.79.73c.01.01,1.21,1.31,1.96,2a.7.7,0,0,1-.37.37.349.349,0,0,1-.39-.06.037.037,0,0,0-.03-.01c-.55-.47-1.62-1.6-2.02-2.02L9.7,9.82a.5.5,0,0,0-.38-.17H9.3a.514.514,0,0,0-.37.15.5.5,0,0,0-.17.38.537.537,0,0,0,.15.38c.12.13.96,1.03,1.66,1.71a2.4,2.4,0,0,1-.97-.34c-.3-.2-2.21-1.62-3.89-3.03-.22-.2-.61-.61-.96-.97l-.02-.02c-.23-.24-.46-.48-.63-.64A44.963,44.963,0,0,0,5.2,2.83H7.63A3.425,3.425,0,0,0,6.57,5.45a1.188,1.188,0,0,0,.82.86,2.306,2.306,0,0,0,2.67-.88,2.4,2.4,0,0,0,.64-.21c.07-.03.15-.07.24-.11.5.46,1.15.99,1.85,1.56a14.627,14.627,0,0,1,3.05,2.88.426.426,0,0,1-.12.54A.391.391,0,0,1,15.31,10.18ZM13.46,5.83A26.219,26.219,0,0,1,11.44,4.1a.512.512,0,0,0-.56-.12c-.28.1-.46.18-.6.24l-.04.02a1.329,1.329,0,0,1-.55.15.548.548,0,0,0-.4.25,1.251,1.251,0,0,1-1.57.65c-.08-.03-.1-.05-.1-.07a2.815,2.815,0,0,1,.94-1.8c1.41-1.41,2.09-1.74,3.6-1.07.68.3,1.8.78,3.31,1.33.61,1.46,1.17,2.95,1.66,4.45l-.66.44A21.16,21.16,0,0,0,13.46,5.83Zm2.75-3.24a14.681,14.681,0,0,1,3.95-.63V8.77H18.47C18.04,7.35,16.89,4.08,16.21,2.59ZM1.08,7.9V1.12a12.979,12.979,0,0,1,3.27.58A47.3,47.3,0,0,1,2.78,7.9Z" transform="translate(1 7)" fill="#8a97b1"/>
</svg>
