<svg xmlns="http://www.w3.org/2000/svg" width="20" height="20" viewBox="0 0 20 20">
  <path d="M13.7,12.34h0a.8.8,0,0,0,.8-.8V1.62A1.62,1.62,0,0,0,12.88,0h-.96a1.618,1.618,0,0,0-1.61,1.62V5.58H9.3A1.626,1.626,0,0,0,7.68,7.2v5.71H4.27L4.24,4.85l1.06.02v6.67a.8.8,0,0,0,1.6,0V4.87A1.62,1.62,0,0,0,5.28,3.25H4.24A1.588,1.588,0,0,0,2.68,4.87V7.93H1.62A1.62,1.62,0,0,0,0,9.55v4.16a.794.794,0,0,0,.8.79H13.7a.8.8,0,0,0,.8-.8.785.785,0,0,0-.79-.79h-1.8L11.93,1.6l.98.02v9.93A.785.785,0,0,0,13.7,12.34ZM1.34,9.55l1.34-.02v3.38H1.59V9.55Zm7.94,3.36L9.3,7.17h1.01V12.9Z" />
</svg>
