<svg xmlns="http://www.w3.org/2000/svg" width="54" height="54" viewBox="0 0 54 54"><defs><style>.a{fill:#f6f7ff;}.b{fill:#fafafc;}.c{fill:#b0d3f0;}.d{fill:#a5a5a4;}.e{fill:#a4c2f7;}.f{fill:#fff;}.g{fill:#e3e7ff;}</style></defs><path class="a" d="M60.734,34.635a26.1,26.1,0,1,1-26.1-26.1A26.1,26.1,0,0,1,60.734,34.635Zm0,0" transform="translate(-7.635 -7.635)"/><path class="a" d="M58.035,34.635c0-14.415-11.081-26.1-24.75-26.1S8.535,20.22,8.535,34.635s11.081,26.1,24.75,26.1S58.035,49.049,58.035,34.635Zm0,0" transform="translate(-7.635 -7.635)"/><path class="b" d="M87.667,65.168c0,.3-.009.6-.018.9a22.255,22.255,0,0,1-2.565,9.558q-.415.8-.909,1.557a22.356,22.356,0,0,1-6.993,6.993q-.756.493-1.557.909a22.255,22.255,0,0,1-9.558,2.565c-.3.009-.6.018-.9.018s-.6-.009-.9-.018a22.255,22.255,0,0,1-9.558-2.565q-.8-.415-1.557-.909a22.374,22.374,0,0,1-6.9-6.849c-.027-.045-.063-.1-.09-.144q-.493-.756-.909-1.557a22.255,22.255,0,0,1-2.565-9.558c-.009-.3-.018-.6-.018-.9s.009-.6.018-.9a22.255,22.255,0,0,1,2.565-9.558q.415-.8.909-1.557a22.356,22.356,0,0,1,6.993-6.993q.756-.493,1.557-.909a22.255,22.255,0,0,1,9.558-2.565c.3-.009.6-.018.9-.018s.6.009.9.018a22.255,22.255,0,0,1,9.558,2.565q.8.415,1.557.909a22.356,22.356,0,0,1,6.993,6.993q.493.756.909,1.557a21.779,21.779,0,0,1,1.179,2.646,22.279,22.279,0,0,1,1.386,6.912c.009.3.018.6.018.9Zm0,0" transform="translate(-38.168 -38.168)"/><path class="c" d="M75.777,368.853l.225-.126c-.054.09-.09.18-.135.27C75.84,368.952,75.8,368.9,75.777,368.853Zm0,0" transform="translate(-67.785 -329.838)"/><path class="a" d="M84.176,53.153l-3.87,2.232a.881.881,0,0,0-.369,1.134A35.811,35.811,0,0,0,66.968,57.9V52.568a1.8,1.8,0,1,0-3.6,0v5.76l-1.386-2.4a1.8,1.8,0,0,0-1.557-.9,1.831,1.831,0,0,0-.9.243,1.806,1.806,0,0,0-.657,2.457l1.728,3A35.4,35.4,0,0,0,47.942,74.069l-2.691,1.557a22.255,22.255,0,0,1-2.565-9.558c-.009-.3-.018-.6-.018-.9s.009-.6.018-.9a22.255,22.255,0,0,1,2.565-9.558q.415-.8.909-1.557a22.356,22.356,0,0,1,6.993-6.993q.756-.493,1.557-.909a22.255,22.255,0,0,1,9.558-2.565c.3-.009.6-.018.9-.018s.6.009.9.018a22.255,22.255,0,0,1,9.558,2.565q.8.415,1.557.909a22.356,22.356,0,0,1,6.993,6.993Zm0,0" transform="translate(-38.168 -38.168)"/><path class="a" d="M417.244,159.49c-1.584-.315-3.1-.54-4.572-.684l3.393-1.962A21.782,21.782,0,0,1,417.244,159.49Zm0,0" transform="translate(-369.149 -140.302)"/><path class="d" d="M249.265,42.686v4.482a.9.9,0,1,1-1.8,0V42.686c.3-.009.6-.018.9-.018S248.968,42.677,249.265,42.686Zm0,0" transform="translate(-221.365 -38.168)"/><path class="d" d="M145.544,72.268a.912.912,0,0,1-1.233-.333l-2.232-3.87q.756-.493,1.557-.909l2.241,3.879a.909.909,0,0,1-.333,1.233Zm0,0" transform="translate(-127.094 -60.073)"/><path class="d" d="M72.268,145.544a.911.911,0,0,1-1.233.333l-3.879-2.241q.415-.8.909-1.557l3.87,2.232a.909.909,0,0,1,.333,1.233Zm0,0" transform="translate(-60.073 -127.094)"/><path class="d" d="M48.068,248.365a.9.9,0,0,1-.9.9H42.686c-.009-.3-.018-.6-.018-.9s.009-.6.018-.9h4.482A.9.9,0,0,1,48.068,248.365Zm0,0" transform="translate(-38.168 -221.365)"/><path class="d" d="M69.847,340.395c-.567,1-1.089,2-1.557,2.988l-.225.126q-.493-.756-.909-1.557Zm0,0" transform="translate(-60.073 -304.494)"/><g transform="translate(8.217 26.1)"><path class="e" d="M81.555,334.456l-3.645,2.106c.468-.99.99-1.989,1.557-2.988l1.188-.684a.9.9,0,0,1,.9,1.566Zm0,0" transform="translate(-77.91 -323.773)"/><path class="e" d="M145.876,396.588l-2.241,3.879q-.8-.415-1.557-.909l2.232-3.87a.9.9,0,1,1,1.566.9Zm0,0" transform="translate(-135.311 -379.65)"/><path class="e" d="M249.265,419.033v4.482c-.3.009-.6.018-.9.018s-.6-.009-.9-.018v-4.482a.9.9,0,0,1,1.8,0Zm0,0" transform="translate(-229.582 -400.133)"/><path class="e" d="M336.688,399.556q-.756.493-1.557.909l-2.241-3.879a.9.9,0,0,1,1.566-.9Zm0,0" transform="translate(-305.89 -379.648)"/><path class="e" d="M400.466,335.131q-.415.8-.909,1.557l-3.87-2.232a.9.9,0,0,1,.9-1.566Zm0,0" transform="translate(-361.766 -323.773)"/><path class="e" d="M423.533,248.365c0,.3-.009.6-.018.9h-4.482a.9.9,0,0,1,0-1.8h4.482C423.524,247.762,423.533,248.068,423.533,248.365Zm0,0" transform="translate(-382.25 -247.465)"/></g><path class="d" d="M400.5,143.636l-3.393,1.962c-.594-.072-1.179-.117-1.755-.153a.881.881,0,0,1,.369-1.134l3.87-2.232Q400.084,142.834,400.5,143.636Zm0,0" transform="translate(-353.584 -127.094)"/><path class="e" d="M397.786,174.149l-.486.279a.911.911,0,0,1-1.233-.333.225.225,0,0,1-.036-.1c.576.036,1.161.081,1.755.153Zm0,0" transform="translate(-354.263 -155.645)"/><path class="d" d="M336.688,68.065l-2.232,3.87a.9.9,0,0,1-1.566-.9l2.241-3.879q.8.415,1.557.909Zm0,0" transform="translate(-297.673 -60.073)"/><path class="a" d="M198.739,163.131v.945a26.875,26.875,0,0,0-2.772,1.449l-1.728-3a1.806,1.806,0,0,1,.657-2.457,1.831,1.831,0,0,1,.9-.243,1.8,1.8,0,0,1,1.557.9Zm0,0" transform="translate(-173.539 -142.971)"/><path class="a" d="M216.324,202.615l-2.178.837-1.494-2.583a26.872,26.872,0,0,1,2.772-1.449l.189-.081.621,2.862Zm0,0" transform="translate(-190.224 -178.315)"/><path class="a" d="M242.533,121.265V126.6a30.071,30.071,0,0,0-3.411,1.287l-.189.081v-6.7a1.8,1.8,0,1,1,3.6,0Zm0,0" transform="translate(-213.733 -106.865)"/><path class="a" d="M242.533,187.137v4.149h-3.6V188.5l.189-.081A30.068,30.068,0,0,1,242.533,187.137Zm0,0" transform="translate(-213.733 -167.4)"/><path class="b" d="M229.067,225.467a3.6,3.6,0,1,1-3.6-3.6A3.6,3.6,0,0,1,229.067,225.467Zm0,0" transform="translate(-198.467 -198.467)"/><path class="f" d="M35.327,60.717c-13.364-.369-24.093-11.9-24.093-26.083S21.964,8.921,35.327,8.552c-.231-.005-.461-.017-.693-.017s-.462.012-.693.017-.437-.017-.657-.017c-13.669,0-24.75,11.686-24.75,26.1s11.081,26.1,24.75,26.1c.22,0,.438-.012.657-.017s.461.017.693.017.462-.012.693-.017Zm0,0" transform="translate(-7.635 -7.635)"/><path class="f" d="M0,27A27.153,27.153,0,0,1,2.692,15.305a28.7,28.7,0,0,1,1.856-3.3c.36-.519.75-1.015,1.123-1.524A13.157,13.157,0,0,1,6.883,9.034a26.015,26.015,0,0,1,5.76-4.873A26.412,26.412,0,0,1,19.53,1.07,28.721,28.721,0,0,1,27,0V1.8a26.9,26.9,0,0,0-6.976,1A24.575,24.575,0,0,0,13.6,5.68a24.169,24.169,0,0,0-5.376,4.553,11.829,11.829,0,0,0-1.133,1.355c-.348.474-.715.937-1.05,1.421a27.167,27.167,0,0,0-1.731,3.077A25.354,25.354,0,0,0,1.8,27Zm0,0" transform="translate(0 0)"/><path class="g" d="M9.938,181.642a.58.58,0,0,0,.144.09,1.194,1.194,0,0,0,.17.061.983.983,0,0,0,.684-.09.915.915,0,0,0,.255-.231.891.891,0,0,0,.055-.976.98.98,0,0,0-.223-.264.874.874,0,0,0-.3-.171.844.844,0,0,0-1.112.62,1,1,0,0,0,.09.7l.1.14A.676.676,0,0,0,9.938,181.642Zm0,0" transform="translate(-8.571 -161.032)"/><path class="g" d="M27,0a28.721,28.721,0,0,0-7.47,1.07,26.421,26.421,0,0,0-6.884,3.092,26,26,0,0,0-5.76,4.873A13.144,13.144,0,0,0,5.67,10.485c-.374.508-.765,1-1.123,1.524a28.64,28.64,0,0,0-1.856,3.3l-.4.839a.882.882,0,0,0,.482,1.194.928.928,0,0,0,1.17-.469l.377-.783a27.1,27.1,0,0,1,1.731-3.077c.335-.484.7-.947,1.05-1.421a11.8,11.8,0,0,1,1.13-1.355A24.168,24.168,0,0,1,13.6,5.685,24.575,24.575,0,0,1,20.024,2.8,26.881,26.881,0,0,1,27,1.8,25.2,25.2,0,1,1,1.8,27l.09-1.736.045-.868.132-.859a.914.914,0,0,0-.756-1.013.894.894,0,0,0-1.027.767l-.14.919-.054.931L0,27A27,27,0,1,0,27,0Zm0,0" transform="translate(0 0)"/><path class="g" d="M37.318,69.284a23.565,23.565,0,0,0,8.468,8.46c.017.011.026.028.044.039s.055.024.083.034a23.311,23.311,0,0,0,23.234,0,.869.869,0,0,0,.083-.036c.018-.01.027-.028.044-.039a23.567,23.567,0,0,0,8.468-8.46c.017-.024.039-.043.053-.068s.01-.038.019-.057a23.31,23.31,0,0,0,0-23.287c-.009-.019-.008-.039-.019-.056s-.028-.027-.039-.044a23.567,23.567,0,0,0-8.482-8.483c-.017-.011-.026-.028-.044-.039s-.038-.01-.057-.019a23.31,23.31,0,0,0-23.286,0c-.018.009-.039.008-.057.019s-.027.028-.044.039A23.567,23.567,0,0,0,37.3,45.77c-.011.017-.029.026-.039.044s-.01.037-.019.056a23.31,23.31,0,0,0,0,23.287c.009.019.008.039.019.057s.036.046.053.07Zm8.648-30,1.785,3.092a.9.9,0,1,0,1.559-.9l-1.786-3.1a21.445,21.445,0,0,1,9.107-2.444v3.577a.9.9,0,1,0,1.8,0V35.939a21.445,21.445,0,0,1,9.107,2.444l-1.786,3.1a.9.9,0,1,0,1.559.9l1.785-3.092a21.772,21.772,0,0,1,6.665,6.665l-3.092,1.785a.9.9,0,1,0,.9,1.559l3.1-1.786a21.445,21.445,0,0,1,2.444,9.107H75.53a.9.9,0,0,0,0,1.8h3.577a21.445,21.445,0,0,1-2.444,9.107l-3.1-1.786a.9.9,0,1,0-.9,1.559L75.76,69.08a21.772,21.772,0,0,1-6.665,6.665L67.31,72.654a.9.9,0,1,0-1.559.9l1.786,3.1a21.445,21.445,0,0,1-9.107,2.444V75.516a.9.9,0,1,0-1.8,0v3.577a21.445,21.445,0,0,1-9.107-2.444l1.786-3.1a.9.9,0,0,0-1.559-.9l-1.785,3.092A21.772,21.772,0,0,1,39.3,69.08L42.392,67.3a.9.9,0,1,0-.9-1.559l-3.1,1.786a21.445,21.445,0,0,1-2.444-9.107H39.53a.9.9,0,0,0,0-1.8H35.953A21.445,21.445,0,0,1,38.4,47.509l3.1,1.786a.9.9,0,1,0,.9-1.559L39.3,45.952a21.772,21.772,0,0,1,6.665-6.665Zm0,0" transform="translate(-30.53 -30.516)"/><path class="g" d="M188.775,124.4a4.5,4.5,0,1,0,6.8-1.743v-9.023a2.7,2.7,0,0,0-5.4,0v2.5a2.752,2.752,0,0,0-3.394-.582,2.7,2.7,0,0,0-.986,3.69Zm4.1,4.533a2.7,2.7,0,1,1,2.7-2.7A2.7,2.7,0,0,1,192.876,128.933Zm0-16.2a.876.876,0,0,1,.641.275.863.863,0,0,1,.26.625v8.19a4.505,4.505,0,0,0-1.8,0v-8.19A.9.9,0,0,1,192.876,112.733Zm-5.2,4.384a.9.9,0,0,1,1.236.322l1.265,2.194v3.023c-.076.057-.149.12-.222.18l-2.6-4.5a.908.908,0,0,1,.32-1.219Zm0,0" transform="translate(-165.876 -99.233)"/></svg>