<svg id="icon-ordem" xmlns="http://www.w3.org/2000/svg" width="24" height="24" viewBox="0 0 24 24">
  <rect id="Retângulo_133" data-name="Retângulo 133" width="24" height="24" fill="none"/>
  <path id="Caminho_447" data-name="Caminho 447" d="M21.34,9.02a1.515,1.515,0,0,0-1.08-.47h-.92a1.294,1.294,0,0,0-1.19-.78h-.89V5.23A.548.548,0,0,0,17,4.74L8.92.07a.574.574,0,0,0-.54,0L.31,4.73A.565.565,0,0,0,0,5.22v9.34a.55.55,0,0,0,.27.48l8.08,4.67a.578.578,0,0,0,.28.08.68.68,0,0,0,.29-.07l3.88-2.23v1.34a1.528,1.528,0,0,0,1.52,1.53h5.93a1.55,1.55,0,0,0,1.54-1.52V10.13A1.609,1.609,0,0,0,21.34,9.02ZM15.62,5.23,8.64,9.26,5.62,7.52,12.6,3.49ZM1.66,5.22,8.64,1.2,11.5,2.85,4.52,6.88ZM8.1,10.21v8.06l-7-4.03V6.18Zm10.06-.92H16.41a.2.2,0,0,1-.19-.22.184.184,0,0,1,.19-.19h1.75a.2.2,0,0,1,.19.22A.2.2,0,0,1,18.16,9.29Zm-4.25.8a.451.451,0,0,1,.43-.45h.93a1.268,1.268,0,0,0,1.17.73h1.73a1.256,1.256,0,0,0,1.18-.73h.91a.453.453,0,0,1,.44.45v8.46l-.02.25a.427.427,0,0,1-.43.43H14.32a.427.427,0,0,1-.42-.41V10.09Zm2.5-2.06Zm-3.62,8.16L9.2,18.27V10.21l6.95-4.03V7.8a1.335,1.335,0,0,0-.93.75h-.9a1.54,1.54,0,0,0-1.07.44,1.565,1.565,0,0,0-.46,1.08v6.12Zm.25-6.09Zm1.4,4.06a.548.548,0,0,1,.55-.55h4.3a.55.55,0,0,1,0,1.1h-4.3A.555.555,0,0,1,14.44,14.16Zm0,2a.548.548,0,0,1,.55-.55h4.3a.55.55,0,0,1,0,1.1h-4.3A.555.555,0,0,1,14.44,16.16Zm0-4a.548.548,0,0,1,.55-.55h4.3a.55.55,0,0,1,0,1.1h-4.3A.555.555,0,0,1,14.44,12.16Z" transform="translate(1 1.998)" fill="#8a97b1"/>
</svg>
