<svg id="icon-contatos" xmlns="http://www.w3.org/2000/svg" width="24" height="24" viewBox="0 0 24 24">
  <rect id="Retângulo_134" data-name="Retângulo 134" width="24" height="24" fill="none"/>
  <path id="Caminho_449" data-name="Caminho 449" d="M6.5,8.32H6.43a3.626,3.626,0,0,0-2.59,1.1,3.808,3.808,0,0,0-1.07,2.71.681.681,0,0,0,.68.68H9.47a.634.634,0,0,0,.47-.2.673.673,0,0,0,.2-.48A3.789,3.789,0,0,0,9.07,9.41,3.594,3.594,0,0,0,6.5,8.32Zm2.21,3.13H4.22a2.377,2.377,0,0,1,.6-1.07,2.309,2.309,0,0,1,3.27,0A2.277,2.277,0,0,1,8.71,11.45ZM6.45,7.99h0A2.492,2.492,0,1,0,4.7,7.26,2.442,2.442,0,0,0,6.45,7.99ZM5.34,5.51A1.11,1.11,0,0,1,6.45,4.39h.01A1.12,1.12,0,1,1,5.34,5.51ZM18.49,7.9a.683.683,0,0,1-.68.69H12.76a.68.68,0,1,1,0-1.36h5.06A.69.69,0,0,1,18.49,7.9Zm0,2.79a.68.68,0,0,1-.2.49.657.657,0,0,1-.47.19H12.76a.68.68,0,0,1,0-1.36h5.05A.687.687,0,0,1,18.49,10.69ZM18.88,0H2.42A2.389,2.389,0,0,0,.71.71,2.373,2.373,0,0,0,0,2.42v11a2.422,2.422,0,0,0,2.42,2.42H18.88a2.422,2.422,0,0,0,2.42-2.42v-11A2.441,2.441,0,0,0,18.88,0Zm1.05,2.42v11a1.05,1.05,0,0,1-1.05,1.05H2.42a1.05,1.05,0,0,1-1.05-1.05v-11A1.05,1.05,0,0,1,2.42,1.37H18.88A1.05,1.05,0,0,1,19.93,2.42ZM18.49,5.13a.68.68,0,0,1-.2.49.657.657,0,0,1-.47.19H12.76a.68.68,0,1,1,0-1.36h5.06A.7.7,0,0,1,18.49,5.13Z" transform="translate(1 4)" fill="#8a97b1"/>
</svg>
