<svg xmlns="http://www.w3.org/2000/svg" width="20" height="20" viewBox="0 0 20 20">
  <path d="M12.55,9.82l-.01-.17A9.664,9.664,0,0,0,10.2,4.29,6.056,6.056,0,0,1,8.55.59.577.577,0,0,0,8.23.07a.564.564,0,0,0-.61.05,8.914,8.914,0,0,0-3.25,4.7,15.421,15.421,0,0,0-.35,3.1c-.91-.47-1.17-1.98-1.18-2.05a.571.571,0,0,0-.66-.49.369.369,0,0,0-.17.05c-.19.1-1.9,1.04-2,4.53-.01.12-.01.24-.01.36a6.305,6.305,0,0,0,5.08,6.17.57.57,0,0,0,.13.01.663.663,0,0,0,.65-.53.615.615,0,0,0,.01-.14.66.66,0,0,0-.36-.59,1.931,1.931,0,0,1-1-1.7v-.13a2.592,2.592,0,0,1,.04-.48,1.472,1.472,0,0,0,1.02.46.675.675,0,0,0,.41-.17.589.589,0,0,0,.17-.42,6.45,6.45,0,0,1,.12-1.46,3.16,3.16,0,0,1,.37-.84,4.523,4.523,0,0,0,.56.92A3.548,3.548,0,0,1,8,13.36v.18a1.935,1.935,0,0,1-.82,1.6.725.725,0,0,0-.32.59.715.715,0,0,0,.88.69,6.3,6.3,0,0,0,4.78-6.1A1.077,1.077,0,0,0,12.55,9.82Zm-7.43,1.5a.572.572,0,0,0-.57-.25.6.6,0,0,0-.19.06c-.1.05-.96.53-1.01,2.26v.16a3.151,3.151,0,0,0,.2,1.1,5.144,5.144,0,0,1-2.39-4.33c0-.09,0-.19.01-.33a4.794,4.794,0,0,1,.8-2.9A2.953,2.953,0,0,0,4.62,9.22h0a.6.6,0,0,0,.59-.59A13.9,13.9,0,0,1,5.52,5.1,7.681,7.681,0,0,1,7.53,1.72,7.835,7.835,0,0,0,9.28,5.01a8.543,8.543,0,0,1,2.1,4.73l.01.2c.01.12.02.24.02.38a5.134,5.134,0,0,1-2.39,4.33,3.194,3.194,0,0,0,.2-1.1,2.023,2.023,0,0,0-.02-.31,4.67,4.67,0,0,0-1.04-2.51,2.418,2.418,0,0,1-.6-1.41.589.589,0,0,0-.59-.58H6.96a.571.571,0,0,0-.35.12,4.174,4.174,0,0,0-1.44,2.22A2.048,2.048,0,0,0,5.12,11.32Z" />
</svg>
