<svg viewBox="0 0 24 24">
  <path d="M9.43,10.98a.763.763,0,0,1-.67.85H3.56a.763.763,0,0,1-.67-.85.763.763,0,0,1,.67-.85h5.2A.776.776,0,0,1,9.43,10.98ZM3.71,5.51h7.52a.826.826,0,0,0,.56-.32.834.834,0,0,0,.17-.63.852.852,0,0,0-.77-.73H3.7a.8.8,0,0,0-.56.31.846.846,0,0,0-.17.63A.859.859,0,0,0,3.71,5.51Zm8.25,2.2a.859.859,0,0,0-.73-.74H3.76a.864.864,0,0,0-.95.74.851.851,0,0,0,.72.95.57.57,0,0,0,.13.01c.03,0,.06,0,.07-.01h7.49A.854.854,0,0,0,11.96,7.71Zm6.38-5.66-.01,13.73a.6.6,0,0,1-.03.2.807.807,0,0,1-.21.31l-4.22,4.19a.7.7,0,0,1-.28.19.632.632,0,0,1-.3.07H2.05A2.053,2.053,0,0,1,0,18.69V2.05A2.053,2.053,0,0,1,2.05,0H16.33a2.032,2.032,0,0,1,2.01,2.05ZM11.68,17.44a.863.863,0,0,1,.34-.58.879.879,0,0,1,.63-.15.869.869,0,0,1,.55.34.833.833,0,0,1,.15.63v.93l2.93-2.91H14.26a.892.892,0,0,1-.77-.73.847.847,0,0,1,.74-.95h2.43V2.05a.356.356,0,0,0-.35-.36H2.05a.363.363,0,0,0-.26.11.347.347,0,0,0-.1.25V18.69a.358.358,0,0,0,.11.25.317.317,0,0,0,.25.1h9.63v-1.4A.647.647,0,0,1,11.68,17.44Z" />
</svg>
