<svg id="icon-grupo-hoteis" xmlns="http://www.w3.org/2000/svg" width="24" height="24" viewBox="0 0 24 24">
  <rect id="Retângulo_136" data-name="Retângulo 136" width="24" height="24" fill="none"/>
  <path id="Caminho_451" data-name="Caminho 451" d="M3.96,7.19v.36a.359.359,0,0,1-.36.36H3.24a.359.359,0,0,1-.36-.36V7.19a.359.359,0,0,1,.36-.36H3.6A.359.359,0,0,1,3.96,7.19Zm-.36,5.4H3.24a.359.359,0,0,0-.36.36v.36a.359.359,0,0,0,.36.36H3.6a.359.359,0,0,0,.36-.36v-.36A.359.359,0,0,0,3.6,12.59Zm0-2.88H3.24a.359.359,0,0,0-.36.36v.36a.359.359,0,0,0,.36.36H3.6a.359.359,0,0,0,.36-.36v-.36A.359.359,0,0,0,3.6,9.71Zm0,1.44H3.24a.359.359,0,0,0-.36.36v.36a.359.359,0,0,0,.36.36H3.6a.359.359,0,0,0,.36-.36v-.36A.359.359,0,0,0,3.6,11.15Zm0-2.88H3.24a.359.359,0,0,0-.36.36v.36a.359.359,0,0,0,.36.36H3.6a.359.359,0,0,0,.36-.36V8.63A.359.359,0,0,0,3.6,8.27ZM2.16,9.71H1.8a.359.359,0,0,0-.36.36v.36a.359.359,0,0,0,.36.36h.36a.359.359,0,0,0,.36-.36v-.36A.359.359,0,0,0,2.16,9.71Zm0,5.75H1.8a.359.359,0,0,0-.36.36v.36a.359.359,0,0,0,.36.36h.36a.359.359,0,0,0,.36-.36v-.36A.359.359,0,0,0,2.16,15.46Zm0-1.44H1.8a.359.359,0,0,0-.36.36v.36a.359.359,0,0,0,.36.36h.36a.359.359,0,0,0,.36-.36v-.36A.365.365,0,0,0,2.16,14.02Zm0,2.88H1.8a.359.359,0,0,0-.36.36v.36a.359.359,0,0,0,.36.36h.36a.359.359,0,0,0,.36-.36v-.36A.359.359,0,0,0,2.16,16.9Zm0-4.31H1.8a.359.359,0,0,0-.36.36v.36a.359.359,0,0,0,.36.36h.36a.359.359,0,0,0,.36-.36v-.36A.359.359,0,0,0,2.16,12.59Zm0,5.75H1.8a.359.359,0,0,0-.36.36v.36a.359.359,0,0,0,.36.36h.36a.359.359,0,0,0,.36-.36V18.7A.359.359,0,0,0,2.16,18.34ZM3.6,16.9H3.24a.359.359,0,0,0-.36.36v.36a.359.359,0,0,0,.36.36H3.6a.359.359,0,0,0,.36-.36v-.36A.359.359,0,0,0,3.6,16.9Zm0-1.44H3.24a.359.359,0,0,0-.36.36v.36a.359.359,0,0,0,.36.36H3.6a.359.359,0,0,0,.36-.36v-.36A.359.359,0,0,0,3.6,15.46Zm0,2.88H3.24a.359.359,0,0,0-.36.36v.36a.359.359,0,0,0,.36.36H3.6a.359.359,0,0,0,.36-.36V18.7A.359.359,0,0,0,3.6,18.34ZM2.16,8.27H1.8a.359.359,0,0,0-.36.36v.36a.359.359,0,0,0,.36.36h.36a.359.359,0,0,0,.36-.36V8.63A.359.359,0,0,0,2.16,8.27Zm0-1.44H1.8a.359.359,0,0,0-.36.36v.36a.359.359,0,0,0,.36.36h.36a.359.359,0,0,0,.36-.36V7.19A.359.359,0,0,0,2.16,6.83Zm0,4.32H1.8a.359.359,0,0,0-.36.36v.36a.359.359,0,0,0,.36.36h.36a.359.359,0,0,0,.36-.36v-.36A.359.359,0,0,0,2.16,11.15ZM3.6,14.02H3.24a.359.359,0,0,0-.36.36v.36a.359.359,0,0,0,.36.36H3.6a.359.359,0,0,0,.36-.36v-.36A.365.365,0,0,0,3.6,14.02Zm5.75-2.87V8.99a.359.359,0,0,1,.36-.36h2.16a.359.359,0,0,1,.36.36v2.16a.359.359,0,0,1-.36.36H9.71A.359.359,0,0,1,9.35,11.15Zm.72-.36h1.44V9.35H10.07Zm10.07,5.75v1.44a.359.359,0,0,1-.36.36H18.34a.359.359,0,0,1-.36-.36V16.54a.359.359,0,0,1,.36-.36h1.44A.359.359,0,0,1,20.14,16.54Zm-.72.36H18.7v.72h.72ZM9.35,7.55V5.39a.359.359,0,0,1,.36-.36h2.16a.359.359,0,0,1,.36.36V7.55a.359.359,0,0,1-.36.36H9.71A.359.359,0,0,1,9.35,7.55Zm.72-.36h1.44V5.75H10.07ZM9.35,3.96V1.8a.359.359,0,0,1,.36-.36h2.16a.359.359,0,0,1,.36.36V3.96a.359.359,0,0,1-.36.36H9.71A.365.365,0,0,1,9.35,3.96Zm.72-.36h1.44V2.16H10.07Zm-4.32.36V1.8a.359.359,0,0,1,.36-.36H8.27a.359.359,0,0,1,.36.36V3.96a.359.359,0,0,1-.36.36H6.11A.365.365,0,0,1,5.75,3.96Zm.72-.36H7.91V2.16H6.47ZM5.75,7.55V5.39a.359.359,0,0,1,.36-.36H8.27a.359.359,0,0,1,.36.36V7.55a.359.359,0,0,1-.36.36H6.11A.359.359,0,0,1,5.75,7.55Zm.72-.36H7.91V5.75H6.47Zm-.72,7.55V12.58a.359.359,0,0,1,.36-.36H8.27a.359.359,0,0,1,.36.36v2.16a.359.359,0,0,1-.36.36H6.11A.359.359,0,0,1,5.75,14.74Zm.72-.36H7.91V12.94H6.47ZM21.58,3.6V20.54a.361.361,0,0,1-.72-.04V3.96h-3.6v16.9a.359.359,0,0,1-.36.36H4.68a.359.359,0,0,1-.36-.36V6.11H.72V20.54A.361.361,0,1,1,0,20.5V5.75a.359.359,0,0,1,.36-.36H4.31V.36A.374.374,0,0,1,4.68,0H16.9a.359.359,0,0,1,.36.36V3.24h3.97A.356.356,0,0,1,21.58,3.6ZM10.43,17.26H8.99V20.5h1.44Zm2.16,3.24V17.26H11.15V20.5ZM16.54.72H5.03V20.5H8.27V16.9a.359.359,0,0,1,.36-.36h4.31a.359.359,0,0,1,.36.36v3.6h3.24ZM5.75,11.15V8.99a.359.359,0,0,1,.36-.36H8.27a.359.359,0,0,1,.36.36v2.16a.359.359,0,0,1-.36.36H6.11A.359.359,0,0,1,5.75,11.15Zm.72-.36H7.91V9.35H6.47Zm2.88,3.95V12.58a.359.359,0,0,1,.36-.36h2.16a.359.359,0,0,1,.36.36v2.16a.359.359,0,0,1-.36.36H9.71A.359.359,0,0,1,9.35,14.74Zm.72-.36h1.44V12.94H10.07ZM20.14,5.04V6.48a.359.359,0,0,1-.36.36H18.34a.359.359,0,0,1-.36-.36V5.04a.359.359,0,0,1,.36-.36h1.44A.359.359,0,0,1,20.14,5.04Zm-.72.35H18.7v.72h.72Zm.72,5.4v1.44a.359.359,0,0,1-.36.36H18.34a.359.359,0,0,1-.36-.36V10.79a.359.359,0,0,1,.36-.36h1.44A.359.359,0,0,1,20.14,10.79Zm-.72.36H18.7v.72h.72Zm-6.47,3.59V12.58a.359.359,0,0,1,.36-.36h2.16a.359.359,0,0,1,.36.36v2.16a.359.359,0,0,1-.36.36H13.31A.359.359,0,0,1,12.95,14.74Zm.71-.36H15.1V12.94H13.66Zm6.48-.71v1.44a.359.359,0,0,1-.36.36H18.34a.359.359,0,0,1-.36-.36V13.67a.359.359,0,0,1,.36-.36h1.44A.359.359,0,0,1,20.14,13.67Zm-.72.35H18.7v.72h.72Zm.72-6.11V9.35a.359.359,0,0,1-.36.36H18.34a.359.359,0,0,1-.36-.36V7.91a.359.359,0,0,1,.36-.36h1.44A.359.359,0,0,1,20.14,7.91Zm-.72.36H18.7v.72h.72Zm-6.47,2.88V8.99a.359.359,0,0,1,.36-.36h2.16a.359.359,0,0,1,.36.36v2.16a.359.359,0,0,1-.36.36H13.31A.359.359,0,0,1,12.95,11.15Zm.71-.36H15.1V9.35H13.66Zm-.71-3.24V5.39a.359.359,0,0,1,.36-.36h2.16a.359.359,0,0,1,.36.36V7.55a.359.359,0,0,1-.36.36H13.31A.359.359,0,0,1,12.95,7.55Zm.71-.36H15.1V5.75H13.66Zm-.71-3.23V1.8a.359.359,0,0,1,.36-.36h2.16a.359.359,0,0,1,.36.36V3.96a.359.359,0,0,1-.36.36H13.31A.365.365,0,0,1,12.95,3.96Zm.71-.36H15.1V2.16H13.66Z" transform="translate(1 1)" fill="#8a97b1"/>
</svg>
