<svg xmlns="http://www.w3.org/2000/svg" width="12.3" height="12.302" viewBox="0 0 12.3 12.302"><path d="M12.3,6.15A6.15,6.15,0,0,1,6.14,12.3a6.058,6.058,0,0,1-3.81-1.33A6.15,6.15,0,1,1,9.97,1.33l.03.03a.6.6,0,0,1,.21.41.651.651,0,0,1-.14.48.662.662,0,0,1-.92.1A4.757,4.757,0,0,0,6.16,1.3H6.14A4.85,4.85,0,1,0,11,6.15a4.8,4.8,0,0,0-.48-2.11.653.653,0,0,1,.3-.87h0a.717.717,0,0,1,.5-.03.634.634,0,0,1,.37.33A6.252,6.252,0,0,1,12.3,6.15ZM6.15,3a.649.649,0,0,0-.65.65v3.5a.649.649,0,0,0,.65.65h2.5a.65.65,0,0,0,0-1.3H6.8V3.65A.649.649,0,0,0,6.15,3Z" transform="translate(0 0.002)"/></svg>
