<svg viewBox="0 0 24 24">
  <path d="M12.09,7.46a.672.672,0,0,0-.19-.48.626.626,0,0,0-.47-.19h-.01a1.983,1.983,0,0,1-.7-3.84V2.72a.666.666,0,0,1,.66-.66h0a.683.683,0,0,1,.47.19.641.641,0,0,1,.19.47v.2a2,2,0,0,1,1.38,1.89v.06a.657.657,0,0,1-.69.62.673.673,0,0,1-.63-.69.67.67,0,1,0-.67.68h.01a1.98,1.98,0,0,1,.59,3.87v.19a.66.66,0,1,1-1.32,0V9.31A2,2,0,0,1,9.44,7.45a.655.655,0,0,1,1.31-.01.673.673,0,0,0,.56.68.429.429,0,0,1,.16,0A.672.672,0,0,0,12.09,7.46ZM5.28,6.15a6.15,6.15,0,1,1,6.15,6.15A6.158,6.158,0,0,1,5.28,6.15Zm6.13,4.83h0a4.83,4.83,0,0,0,.02-9.66h0a4.83,4.83,0,0,0-.02,9.66Zm10.64,5.88-7.32,4.73a5.8,5.8,0,0,1-2.38.52H12.3a5.147,5.147,0,0,1-1.1-.12l-.06-.02L6.16,20.58a1.171,1.171,0,0,0-.88.1l-.71.38-.01.2a.655.655,0,0,1-.66.64L.65,21.81A.662.662,0,0,1,0,21.13l.19-7.08a.653.653,0,0,1,.68-.64l3.22.09a.66.66,0,0,1,.64.68l-.01.27a5.51,5.51,0,0,1,4.74.17l.3.15a2.812,2.812,0,0,0,1.23.32l2.94.08a2.8,2.8,0,0,1,2.3,1.29l2.97-1.4a2.31,2.31,0,0,1,3.06.93A.635.635,0,0,1,22.05,16.86Zm-6.81.54a1.491,1.491,0,0,0-1.36-.91l-2.94-.08a4.188,4.188,0,0,1-1.8-.47l-.3-.15a4.19,4.19,0,0,0-4.18.16l-.09,3.6.05-.03a2.57,2.57,0,0,1,1.86-.2l4.99,1.4a4.409,4.409,0,0,0,2.63-.3l6.5-4.21a.967.967,0,0,0-.83.03l-.07.03-3.05,1.44a2.541,2.541,0,0,1,.01.39.669.669,0,0,1-.66.64l-4.85-.13a.649.649,0,0,1-.62-.65.662.662,0,0,1,.64-.66ZM1.48,14.75l-.16,5.76,1.92.06.15-5.76Z" />
</svg>
