<svg xmlns="http://www.w3.org/2000/svg" width="20" height="20" viewBox="0 0 20 20">
  <path d="M10.81,10.76h0a4.108,4.108,0,0,1-4.1,4.08H6.7a.91.91,0,0,1,0-1.82h.01a2.281,2.281,0,0,0,2.28-2.26.91.91,0,1,1,1.82,0ZM9.87,4.22C8.82,3.02,7.62,1.67,7.62.91a.915.915,0,0,0-1.83,0c0,.71-1.18,2.06-2.21,3.24C1.9,6.08,0,8.25,0,10.58v.18a6.721,6.721,0,0,0,6.4,6.69v.01h.31a6.6,6.6,0,0,0,3.63-1.08.911.911,0,0,0-.99-1.53,4.851,4.851,0,0,1-2.64.78H6.7a4.884,4.884,0,0,1-4.88-4.87v-.18c0-1.66,1.66-3.56,3.13-5.23A24.133,24.133,0,0,0,6.7,3.2,21.411,21.411,0,0,0,8.5,5.41c1.45,1.65,3.1,3.51,3.1,5.16v.17a4.9,4.9,0,0,1-.48,2.06.942.942,0,0,0-.03.7.923.923,0,0,0,.47.52.942.942,0,0,0,.7.03.875.875,0,0,0,.51-.47,6.624,6.624,0,0,0,.65-2.83v-.18C13.42,8.25,11.54,6.11,9.87,4.22Z" />
</svg>
