<svg id="icon-sempre-novo" xmlns="http://www.w3.org/2000/svg" width="24" height="24" viewBox="0 0 24 24">
  <rect id="Retângulo_129" data-name="Retângulo 129" width="24" height="24" fill="none"/>
  <path id="Caminho_448" data-name="Caminho 448" d="M16.07,9.71a2.377,2.377,0,0,0,.59-1.39,2.513,2.513,0,0,0-.6-1.42,2.017,2.017,0,0,1-.33-.56,2.328,2.328,0,0,1,0-.65,2.505,2.505,0,0,0-.19-1.53,2.417,2.417,0,0,0-1.21-.91,2.168,2.168,0,0,1-.58-.33,2.168,2.168,0,0,1-.33-.58,2.373,2.373,0,0,0-.92-1.23A2.473,2.473,0,0,0,11.02.93a2.32,2.32,0,0,1-.7,0A2.273,2.273,0,0,1,9.74.59,2.533,2.533,0,0,0,8.32,0,2.513,2.513,0,0,0,6.9.6a2.139,2.139,0,0,1-.55.33,2.4,2.4,0,0,1-.71,0,2.406,2.406,0,0,0-1.48.19,2.43,2.43,0,0,0-.92,1.2,1.994,1.994,0,0,1-.34.59,2.063,2.063,0,0,1-.58.34,2.235,2.235,0,0,0-1.19.92A2.616,2.616,0,0,0,.96,5.62a2.351,2.351,0,0,1-.01.71,2.237,2.237,0,0,1-.34.57A2.493,2.493,0,0,0,0,8.32,2.484,2.484,0,0,0,.6,9.74a2.017,2.017,0,0,1,.33.56,2.325,2.325,0,0,1,0,.7,2.406,2.406,0,0,0,.19,1.48,2.417,2.417,0,0,0,1.21.91,2.273,2.273,0,0,1,.56.31,6.618,6.618,0,0,1,.56.97L1.54,20.25a.975.975,0,0,0,1.48,1.1l.94-.66.33,1.1a.983.983,0,0,0,1.22.67.969.969,0,0,0,.66-.63l1.82-5.24a1.747,1.747,0,0,0,.72,0l1.81,5.25a.985.985,0,0,0,.93.67,1.115,1.115,0,0,0,.31-.05.969.969,0,0,0,.63-.66l.33-1.1.94.66a.949.949,0,0,0,.73.14.938.938,0,0,0,.62-.42,1.021,1.021,0,0,0,.12-.84l-1.9-5.57a6.987,6.987,0,0,1,.53-.94,2.132,2.132,0,0,1,.61-.35,2.4,2.4,0,0,0,1.19-.91,2.553,2.553,0,0,0,.19-1.5,2.194,2.194,0,0,1,0-.68A1.7,1.7,0,0,1,16.07,9.71Zm-1.59,1.38c.07.82.07.82-.65,1.15a2.377,2.377,0,0,0-1.56,1.54c-.34.75-.34.75-1.13.68a2.513,2.513,0,0,0-2.12.55c-.66.45-.71.49-1.37.02a2.311,2.311,0,0,0-1.55-.61h0c-.18,0-.36.02-.54.03a1.643,1.643,0,0,1-.76-.03,1.6,1.6,0,0,1-.4-.64,3.273,3.273,0,0,0-.6-.96,3.318,3.318,0,0,0-.97-.6,1.666,1.666,0,0,1-.63-.39,1.273,1.273,0,0,1-.04-.73,3.141,3.141,0,0,0-.04-1.14,3.168,3.168,0,0,0-.54-.99,1.677,1.677,0,0,1-.35-.62,1.486,1.486,0,0,1,.35-.71,2.367,2.367,0,0,0,.58-2.11c-.08-.82-.08-.82.65-1.15A2.391,2.391,0,0,0,4.37,2.83c.34-.75.36-.75,1.13-.67A2.551,2.551,0,0,0,7.62,1.6c.66-.45.71-.49,1.37-.02a2.41,2.41,0,0,0,2.12.57c.82-.07.82-.07,1.15.65A2.42,2.42,0,0,0,13.8,4.36c.76.35.76.35.68,1.13a2.46,2.46,0,0,0,.55,2.11c.45.66.49.71.02,1.37A2.381,2.381,0,0,0,14.48,11.09ZM4.56,19.44a1,1,0,0,0-.45-.11,1.248,1.248,0,0,0-.32.05,1.111,1.111,0,0,0-.27.13l-.59.41.85-2.5c.34-1,.53-1.54.62-1.81a2.974,2.974,0,0,0,1.22.07,2.165,2.165,0,0,1,.67-.01,2.166,2.166,0,0,1,.53.31L5.24,20.7l-.21-.68A.967.967,0,0,0,4.56,19.44Zm5.71-3.74a2.1,2.1,0,0,1,.71,0,2.718,2.718,0,0,0,1.23-.07c.07.2.19.56.38,1.1.23.67.57,1.67,1.08,3.15l-.54-.41h0a.985.985,0,0,0-1.51.53l-.21.69L9.79,15.98A2.607,2.607,0,0,1,10.27,15.7ZM8.32,2.57a5.75,5.75,0,1,0,5.75,5.75A5.757,5.757,0,0,0,8.32,2.57Zm4.54,5.75a4.539,4.539,0,0,1-4.52,4.54H8.33a4.525,4.525,0,0,1-3.2-7.73A4.446,4.446,0,0,1,8.32,3.8h.01a4.524,4.524,0,0,1,4.53,4.52Z" transform="translate(4 1)" fill="#8a97b1"/>
</svg>
