<svg xmlns="http://www.w3.org/2000/svg" width="64" height="64" viewBox="0 0 64 64"><path d="M41.22,19.83H36.24a4.33,4.33,0,0,0-8.6,0H22.66A3.668,3.668,0,0,0,19,23.49v.19a3.661,3.661,0,0,0,2.31,3.4V44.35A3.653,3.653,0,0,0,24.97,48H38.91a3.668,3.668,0,0,0,3.66-3.66V27.07a3.661,3.661,0,0,0,2.31-3.4v-.18A3.675,3.675,0,0,0,41.22,19.83Zm-9.28-2.1a2.6,2.6,0,0,1,2.55,2.1h-5.1A2.6,2.6,0,0,1,31.94,17.73Zm8.89,26.61a1.92,1.92,0,0,1-1.92,1.92H24.97a1.92,1.92,0,0,1-1.92-1.92V27.33H40.84V44.34Zm2.31-20.66a1.92,1.92,0,0,1-1.92,1.92H22.66a1.92,1.92,0,0,1-1.92-1.92v-.19a1.92,1.92,0,0,1,1.92-1.92H41.23a1.92,1.92,0,0,1,1.92,1.92l-.01.19ZM27.29,44.05a.871.871,0,0,0,.87-.87h0V30.86a.87.87,0,0,0-1.74,0h0V43.18a.871.871,0,0,0,.87.87Zm4.65,0a.871.871,0,0,0,.87-.87h0V30.86a.87.87,0,1,0-1.74,0h0V43.18a.871.871,0,0,0,.87.87Zm4.65,0a.871.871,0,0,0,.87-.87h0V30.86a.87.87,0,1,0-1.74,0h0V43.18a.871.871,0,0,0,.87.87ZM32,64A32,32,0,1,1,64,32,32.036,32.036,0,0,1,32,64ZM32,2A30,30,0,1,0,62,32,30.037,30.037,0,0,0,32,2Z"/></svg>
