<svg viewBox="0 0 23.65 24.487">
  <path d="M20.4,17.99h0a3.236,3.236,0,0,0-3.18,2.57H.68a.687.687,0,0,0-.68.68.708.708,0,0,0,.19.48.673.673,0,0,0,.48.2H17.21a3.261,3.261,0,0,0,3.18,2.57,3.829,3.829,0,0,0,.47-.03,3.252,3.252,0,0,0-.46-6.47Zm1.89,3.25a1.91,1.91,0,0,1-1.89,1.9h0a1.926,1.926,0,0,1-1.34-.55,1.9,1.9,0,0,1,1.33-3.24h0a1.926,1.926,0,0,1,1.34.55A1.893,1.893,0,0,1,22.29,21.24ZM.68,12.92H8.67a3.341,3.341,0,0,0,3.24,2.58,3.477,3.477,0,0,0,.55-.04,3.351,3.351,0,0,0,2.7-2.53h7.81a.68.68,0,1,0,0-1.36H15.2a3.333,3.333,0,0,0-3.64-2.74,3.365,3.365,0,0,0-2.93,2.74H.67a.694.694,0,0,0-.67.69A.677.677,0,0,0,.68,12.92Zm9.25-.76a1.985,1.985,0,1,1,1.99,1.98h0a1.975,1.975,0,0,1-1.4-.58A1.943,1.943,0,0,1,9.93,12.16ZM3.25,6.5h0A3.236,3.236,0,0,0,6.43,3.93H22.97a.68.68,0,1,0,0-1.36H6.43A3.241,3.241,0,0,0,2.79.04,3.2,3.2,0,0,0,.65,1.31,3.2,3.2,0,0,0,.04,3.72,3.259,3.259,0,0,0,3.25,6.5ZM1.36,3.26V3.24a1.895,1.895,0,0,1,1.9-1.89h0a1.9,1.9,0,0,1,0,3.79H3.25A1.895,1.895,0,0,1,1.36,3.26Z" />
</svg>
