<svg viewBox="0 0 69.051 16">
  <path d="M46.643,4.932l-3.2,6.115h2.1l.517-1.035h3.987l.517,1.035h2.085L49.5,4.932H46.643Zm.071,3.741,1.163-2.315h.367l1.163,2.315ZM39.171,7.579V8.8h2.416c0,.087,0,.144,0,.169a1.054,1.054,0,0,1-.056.4.355.355,0,0,1-.187.191,1.385,1.385,0,0,1-.433.082c-.18.01-.688.018-1.524.025Q38.11,9.65,37.87,9.625a.715.715,0,0,1-.39-.146.7.7,0,0,1-.2-.433,7.392,7.392,0,0,1-.053-1.082,6.092,6.092,0,0,1,.053-.975.686.686,0,0,1,.2-.409,1.145,1.145,0,0,1,.559-.166c.271-.029.726-.044,1.362-.044q.879,0,1.343.028a1.35,1.35,0,0,1,.645.138.3.3,0,0,1,.11.155,1.548,1.548,0,0,1,.029.352h1.837a5.583,5.583,0,0,0-.075-1,1.169,1.169,0,0,0-.838-.95A5.436,5.436,0,0,0,41.362,4.9q-.663-.057-1.8-.057a17.765,17.765,0,0,0-2.849.165,1.332,1.332,0,0,0-1.109.861,3.091,3.091,0,0,0-.174.761c-.028.284-.044.705-.044,1.263a16.177,16.177,0,0,0,.053,1.65,2.287,2.287,0,0,0,.19.721,1.186,1.186,0,0,0,.393.448,2.376,2.376,0,0,0,1.02.34,19.471,19.471,0,0,0,2.2.085q1.228,0,1.826-.034a7.593,7.593,0,0,0,1.063-.128A1.35,1.35,0,0,0,43.313,9.7q.066-.654.066-1.949c0-.01,0-.068-.009-.165h-4.2ZM23.734,9.511h-.343l-2.2-4.577H19.173l2.98,6.115h2.824l2.942-6.115H25.913Zm6.3-.913h4.62V7.253h-4.62V6.37H34.9V4.933H28.222v6.115h6.714V9.578h-4.9Zm37.088.825v1.625h1.93V9.422Zm.665-4.491h-7.3V6.491h2.686v4.555h1.93V6.492h2.681V4.932Zm-9.738,6.115h1.929V9.422H58.048Zm-2.864,0h1.93V4.932h-1.93ZM8.551,5.831a9.866,9.866,0,0,1,0,1.384A15.95,15.95,0,0,1,6.14,14.409c-.309.448-.374.611.2.3a9.428,9.428,0,0,0,2.208-1.486c4.51-3.966,7.5-12.509,0-13.191C8.336.014,8.117,0,7.884-.008A6.841,6.841,0,0,0,3.978,1.046C7.153,1.346,8.372,3.381,8.551,5.831Zm0,7.954A15.79,15.79,0,0,1,5.8,15.416c-.7.246-.208-.325-.216-4.043-.007-3.459-.434-8.943-2.92-9.363A8.015,8.015,0,0,0,7.884,15.989c.224,0,.446-.01.667-.029a8.02,8.02,0,0,0,5.607-12.8C15.473,7.688,11.558,11.635,8.551,13.785Z" />
</svg>
