<svg xmlns="http://www.w3.org/2000/svg" viewBox="0 0 170.498 24.458">
  <path fill="#6d7882" d="M94.067 6.637a1.726 1.726 0 01-.661 1.426 2.743 2.743 0 01-1.758.526 5.507 5.507 0 01-2.022-.29v-.5a5.114 5.114 0 001.982.33 2.221 2.221 0 001.4-.406 1.287 1.287 0 00.523-1.067 1.229 1.229 0 00-.172-.676 1.57 1.57 0 00-.561-.489 6.914 6.914 0 00-1.141-.477 3.905 3.905 0 01-1.522-.819 1.627 1.627 0 01-.42-1.173 1.612 1.612 0 01.632-1.316 2.51 2.51 0 011.629-.508 4.757 4.757 0 011.9.384l-.182.433a4.439 4.439 0 00-1.711-.374 2.007 2.007 0 00-1.269.369 1.205 1.205 0 00-.472 1 1.314 1.314 0 00.145.654 1.334 1.334 0 00.475.46 6.5 6.5 0 001.131.489 6.1 6.1 0 011.264.563 1.807 1.807 0 01.617.62 1.691 1.691 0 01.193.841zm1.884 1.854h-.487V3.145h.487zm-.556-6.835q0-.472.31-.472a.275.275 0 01.239.123.6.6 0 01.086.349.618.618 0 01-.086.349.272.272 0 01-.239.128q-.31.004-.31-.477zm5.661 5.443a1.271 1.271 0 01-.546 1.1 2.657 2.657 0 01-1.549.386 3.694 3.694 0 01-1.7-.33v-.526a3.756 3.756 0 001.7.4 2.245 2.245 0 001.2-.263.8.8 0 00.411-.7.854.854 0 00-.327-.679 3.6 3.6 0 00-1.069-.531 6.155 6.155 0 01-1.13-.5 1.556 1.556 0 01-.489-.472 1.186 1.186 0 01-.165-.642 1.1 1.1 0 01.5-.949 2.449 2.449 0 011.409-.349 4.219 4.219 0 011.643.325l-.182.443a3.852 3.852 0 00-1.461-.325 2.115 2.115 0 00-1.038.216.664.664 0 00-.384.6.831.831 0 00.3.669 4.148 4.148 0 001.163.561 5.723 5.723 0 011.052.47 1.53 1.53 0 01.494.475 1.161 1.161 0 01.168.621zm2.788 1.057a3.652 3.652 0 00.807-.079v.393a2.58 2.58 0 01-.816.118 1.329 1.329 0 01-1.045-.379 1.758 1.758 0 01-.337-1.19V3.568h-.792v-.285l.792-.221.246-1.21h.251v1.293h1.569v.423h-1.57v3.388a1.544 1.544 0 00.216.91.785.785 0 00.679.29zm4.121.433a2.329 2.329 0 01-1.817-.718 2.886 2.886 0 01-.651-2.015 3.136 3.136 0 01.63-2.048 2.078 2.078 0 011.7-.77 1.832 1.832 0 011.49.659 2.721 2.721 0 01.546 1.79v.393h-3.855a2.529 2.529 0 00.514 1.682 1.809 1.809 0 001.443.58 4.477 4.477 0 00.8-.064 4.886 4.886 0 00.878-.275v.443a3.915 3.915 0 01-.836.268 4.64 4.64 0 01-.841.076zm-.143-5.115a1.6 1.6 0 00-1.239.509 2.4 2.4 0 00-.545 1.473h3.3a2.331 2.331 0 00-.4-1.453 1.33 1.33 0 00-1.115-.528zm10.19 5.016V4.985a1.746 1.746 0 00-.3-1.141 1.158 1.158 0 00-.934-.359 1.525 1.525 0 00-1.215.452 2.133 2.133 0 00-.397 1.419v3.133h-.5V4.837q0-1.352-1.239-1.352a1.461 1.461 0 00-1.225.489 2.549 2.549 0 00-.384 1.566v2.951h-.487V3.145h.4l.1.733h.03a1.533 1.533 0 01.63-.617 1.874 1.874 0 01.9-.219 1.537 1.537 0 011.623.949h.02a1.817 1.817 0 01.7-.7 2.017 2.017 0 011-.246 1.716 1.716 0 011.313.467 2.122 2.122 0 01.438 1.485v3.5zm5.459 0l-.123-.846h-.039a2.539 2.539 0 01-.829.73 2.214 2.214 0 01-1.006.214 1.74 1.74 0 01-1.225-.4 1.442 1.442 0 01-.438-1.116 1.378 1.378 0 01.654-1.216 3.543 3.543 0 011.886-.457l1.018-.03v-.354a1.818 1.818 0 00-.31-1.151 1.2 1.2 0 00-1-.389 3.339 3.339 0 00-1.539.413l-.182-.423a4.074 4.074 0 011.738-.409 1.735 1.735 0 011.316.457 2.009 2.009 0 01.435 1.426v3.556zm-1.967-.344a1.835 1.835 0 001.35-.489 1.827 1.827 0 00.494-1.36v-.526l-.934.039a3.53 3.53 0 00-1.606.352 1.013 1.013 0 00-.48.927 1 1 0 00.307.78 1.249 1.249 0 00.87.278zm6.8.344V1.3h.5v7.19zm6.143 0V5.024a1.691 1.691 0 00-.342-1.168 1.37 1.37 0 00-1.052-.366 1.822 1.822 0 00-1.4.484 2.284 2.284 0 00-.445 1.571v2.951h-.492V3.145h.413l.093.733h.03a2.009 2.009 0 011.854-.836q1.82 0 1.82 1.952v3.5zm3.622-.334a3.652 3.652 0 00.807-.079v.393a2.58 2.58 0 01-.816.118 1.329 1.329 0 01-1.045-.379 1.758 1.758 0 01-.337-1.19V3.568h-.792v-.285l.792-.221.246-1.21h.252v1.293h1.569v.423h-1.569v3.388a1.544 1.544 0 00.216.91.785.785 0 00.677.29zm4.121.433a2.329 2.329 0 01-1.814-.717 2.886 2.886 0 01-.655-2.016 3.136 3.136 0 01.63-2.048 2.078 2.078 0 011.7-.77 1.832 1.832 0 011.49.659 2.721 2.721 0 01.546 1.79v.393h-3.854a2.529 2.529 0 00.514 1.682 1.809 1.809 0 001.443.58 4.477 4.477 0 00.8-.064 4.886 4.886 0 00.878-.275v.443a3.915 3.915 0 01-.836.268 4.64 4.64 0 01-.842.076zm-.143-5.115a1.6 1.6 0 00-1.239.509 2.4 2.4 0 00-.546 1.473h3.3a2.331 2.331 0 00-.4-1.453 1.33 1.33 0 00-1.115-.528zm7.682-.33v.339l-1.106.073a1.888 1.888 0 01.443 1.21 1.633 1.633 0 01-.514 1.252 1.941 1.941 0 01-1.379.48 3 3 0 01-.511-.03 1.272 1.272 0 00-.443.359.725.725 0 00-.152.438.405.405 0 00.194.374 1.323 1.323 0 00.652.118h.934a2.17 2.17 0 011.333.352 1.225 1.225 0 01.462 1.04 1.481 1.481 0 01-.687 1.307 3.5 3.5 0 01-1.955.46 2.69 2.69 0 01-1.562-.394 1.248 1.248 0 01-.553-1.082 1.284 1.284 0 01.342-.915 1.771 1.771 0 01.927-.5.943.943 0 01-.386-.293.7.7 0 01-.145-.435 1.144 1.144 0 01.683-.941 1.524 1.524 0 01-.728-.6 1.72 1.72 0 01-.261-.942 1.693 1.693 0 01.509-1.286 1.912 1.912 0 011.375-.484 2.534 2.534 0 01.816.1zm-4.328 6.252q0 1.1 1.638 1.1 2.1 0 2.1-1.343a.774.774 0 00-.33-.7 2.006 2.006 0 00-1.067-.216h-.866q-1.475.003-1.475 1.159zm.408-4.584a1.233 1.233 0 00.376.961 1.438 1.438 0 001.006.342 1.431 1.431 0 001.025-.339 1.294 1.294 0 00.357-.984 1.336 1.336 0 00-.366-1.025 1.446 1.446 0 00-1.025-.342 1.359 1.359 0 00-1.006.366 1.379 1.379 0 00-.366 1.022zm7.121-1.77a4.184 4.184 0 01.728.069l-.093.467a2.848 2.848 0 00-.693-.084 1.346 1.346 0 00-1.121.58 2.366 2.366 0 00-.438 1.466v2.951h-.487V3.145h.413l.049.964h.034a2.267 2.267 0 01.7-.829 1.647 1.647 0 01.909-.238zm5.061 5.449l-.123-.846h-.039a2.539 2.539 0 01-.829.73 2.213 2.213 0 01-1.006.214 1.74 1.74 0 01-1.225-.4 1.442 1.442 0 01-.438-1.116 1.378 1.378 0 01.653-1.217 3.543 3.543 0 011.886-.457l1.018-.03v-.354a1.818 1.818 0 00-.31-1.151 1.2 1.2 0 00-1-.389 3.339 3.339 0 00-1.539.413l-.182-.423a4.074 4.074 0 011.743-.409 1.735 1.735 0 011.316.457 2.009 2.009 0 01.435 1.426v3.556zm-1.967-.344a1.835 1.835 0 001.352-.491 1.827 1.827 0 00.494-1.36V5.77l-.934.039a3.53 3.53 0 00-1.606.352 1.013 1.013 0 00-.48.927 1 1 0 00.307.78 1.249 1.249 0 00.867.279zm6.015-5.1a2.22 2.22 0 011 .211 2 2 0 01.757.723h.03q-.03-.62-.03-1.215V.839h.482v7.652h-.32l-.123-.816h-.039a1.978 1.978 0 01-1.751.915 2.1 2.1 0 01-1.692-.689 3.021 3.021 0 01-.577-2.006 3.352 3.352 0 01.58-2.12 2.024 2.024 0 011.683-.733zm0 .443a1.512 1.512 0 00-1.316.615 3.046 3.046 0 00-.44 1.785q0 2.272 1.766 2.272a1.6 1.6 0 001.327-.531 2.793 2.793 0 00.423-1.736v-.084a2.976 2.976 0 00-.416-1.783 1.586 1.586 0 00-1.344-.543zm8.459 2.326a3.028 3.028 0 01-.635 2.04 2.19 2.19 0 01-1.751.735 2.267 2.267 0 01-1.236-.341 2.171 2.171 0 01-.821-.974 3.542 3.542 0 01-.285-1.466 3.009 3.009 0 01.634-2.039 2.186 2.186 0 011.741-.73 2.144 2.144 0 011.729.74 3.04 3.04 0 01.624 2.03zm-4.22 0a2.721 2.721 0 00.484 1.719 1.64 1.64 0 001.37.617 1.64 1.64 0 001.37-.617 2.721 2.721 0 00.484-1.719 2.678 2.678 0 00-.489-1.716 1.663 1.663 0 00-1.375-.61 1.637 1.637 0 00-1.365.607 2.715 2.715 0 00-.481 1.714zM91.933 16.471a2.22 2.22 0 011 .211 2 2 0 01.757.723h.03q-.03-.62-.03-1.215v-1.922h.486v7.652h-.32l-.123-.816h-.039a1.978 1.978 0 01-1.751.915 2.1 2.1 0 01-1.692-.689 3.021 3.021 0 01-.585-2.006 3.352 3.352 0 01.58-2.12 2.024 2.024 0 011.687-.733zm0 .443a1.512 1.512 0 00-1.316.615 3.046 3.046 0 00-.441 1.785q0 2.272 1.766 2.272a1.6 1.6 0 001.329-.53 2.793 2.793 0 00.423-1.736v-.08a2.976 2.976 0 00-.418-1.784 1.586 1.586 0 00-1.343-.542zm6.2 5.1a2.329 2.329 0 01-1.817-.718 2.886 2.886 0 01-.652-2.011 3.136 3.136 0 01.63-2.048 2.078 2.078 0 011.7-.77 1.832 1.832 0 011.49.659 2.721 2.721 0 01.546 1.79v.393h-3.854a2.529 2.529 0 00.51 1.687 1.809 1.809 0 001.443.58 4.477 4.477 0 00.8-.064 4.887 4.887 0 00.878-.275v.443a3.915 3.915 0 01-.836.268 4.64 4.64 0 01-.841.071zm-.146-5.11a1.6 1.6 0 00-1.239.509 2.4 2.4 0 00-.546 1.468h3.3a2.331 2.331 0 00-.4-1.453 1.33 1.33 0 00-1.115-.524zm9.413 5.016l-2.68-6.639h-.044q.039.61.039 1.249v5.39h-.482v-7.189h.777l2.552 6.325h.03l2.548-6.325h.757v7.19h-.507v-5.45q0-.57.059-1.18h-.039l-2.69 6.629zm8.651 0l-.123-.846h-.039a2.539 2.539 0 01-.829.73 2.214 2.214 0 01-1.006.214 1.74 1.74 0 01-1.225-.4 1.442 1.442 0 01-.438-1.116 1.378 1.378 0 01.652-1.215 3.543 3.543 0 011.886-.457l1.018-.03v-.356a1.818 1.818 0 00-.31-1.151 1.2 1.2 0 00-1-.389 3.339 3.339 0 00-1.539.413l-.182-.423a4.074 4.074 0 011.741-.413 1.735 1.735 0 011.319.458 2.009 2.009 0 01.435 1.426v3.556zm-1.967-.344a1.7 1.7 0 001.844-1.849v-.526l-.934.039a3.53 3.53 0 00-1.606.352 1.013 1.013 0 00-.48.927 1 1 0 00.307.78 1.249 1.249 0 00.869.277zm7.785.344v-3.464a1.691 1.691 0 00-.339-1.173 1.37 1.37 0 00-1.054-.369 1.822 1.822 0 00-1.4.484 2.284 2.284 0 00-.445 1.571v2.951h-.487v-5.345h.413l.093.733h.03a2.009 2.009 0 011.854-.836q1.82 0 1.82 1.952v3.5zm2.636-5.346v3.462a1.691 1.691 0 00.339 1.173 1.37 1.37 0 001.052.366 1.837 1.837 0 001.4-.482 2.256 2.256 0 00.45-1.569v-2.949h.482v5.346h-.413l-.089-.738h-.03a2.009 2.009 0 01-1.854.836q-1.825 0-1.825-1.952v-3.492zm6.929 5.011a3.652 3.652 0 00.807-.079v.393a2.58 2.58 0 01-.816.118 1.329 1.329 0 01-1.045-.379 1.758 1.758 0 01-.337-1.19v-3.45h-.792v-.286l.792-.221.246-1.21h.251v1.294h1.569v.423h-1.57v3.384a1.544 1.544 0 00.216.91.785.785 0 00.679.294zm4.121.433a2.329 2.329 0 01-1.817-.718 2.886 2.886 0 01-.652-2.011 3.136 3.136 0 01.63-2.048 2.078 2.078 0 011.7-.77 1.832 1.832 0 011.49.659 2.721 2.721 0 01.546 1.79v.393h-3.854a2.529 2.529 0 00.514 1.682 1.809 1.809 0 001.443.58 4.477 4.477 0 00.8-.064 4.886 4.886 0 00.878-.275v.443a3.916 3.916 0 01-.836.268 4.64 4.64 0 01-.841.072zm-.143-5.115a1.6 1.6 0 00-1.239.509 2.4 2.4 0 00-.546 1.468h3.3a2.331 2.331 0 00-.4-1.453 1.33 1.33 0 00-1.114-.523zm7.239 5.016v-3.463a1.691 1.691 0 00-.339-1.173 1.37 1.37 0 00-1.052-.366 1.822 1.822 0 00-1.4.484 2.284 2.284 0 00-.445 1.571v2.951h-.487v-5.348h.413l.093.733h.03a2.009 2.009 0 011.854-.836q1.82 0 1.82 1.952v3.5zm4.348.1a2.289 2.289 0 01-1.8-.723 2.912 2.912 0 01-.649-2.016 2.961 2.961 0 01.674-2.068 2.369 2.369 0 011.844-.74 3.708 3.708 0 011.328.241l-.133.433a3.9 3.9 0 00-1.2-.231 1.83 1.83 0 00-1.49.607 2.663 2.663 0 00-.507 1.748 2.582 2.582 0 00.507 1.694 1.737 1.737 0 001.416.612 3.476 3.476 0 001.352-.261v.452a3.065 3.065 0 01-1.341.252zm.527 1.337a.866.866 0 01-.332.74 1.52 1.52 0 01-.927.248 1.34 1.34 0 01-.462-.054v-.434a1.537 1.537 0 00.452.049 1.036 1.036 0 00.585-.138.448.448 0 00.2-.393q0-.462-.949-.6l.457-.856h.472l-.325.575q.829.185.829.863zm5.37-1.431l-.123-.846h-.039a2.539 2.539 0 01-.829.73 2.214 2.214 0 01-1.006.214 1.74 1.74 0 01-1.225-.4 1.442 1.442 0 01-.438-1.116 1.378 1.378 0 01.652-1.215 3.543 3.543 0 011.888-.465l1.018-.03v-.353a1.818 1.818 0 00-.31-1.151 1.2 1.2 0 00-1-.389 3.339 3.339 0 00-1.539.413l-.182-.423a4.074 4.074 0 011.741-.413 1.735 1.735 0 011.316.457 2.009 2.009 0 01.435 1.426v3.556zm-1.967-.344a1.7 1.7 0 001.847-1.854v-.526l-.934.039a3.53 3.53 0 00-1.606.352 1.013 1.013 0 00-.48.927 1 1 0 00.307.78 1.249 1.249 0 00.866.277zm1.254-5.769a.86.86 0 01-.369-.091 2.48 2.48 0 01-.5-.352 3.755 3.755 0 00-.307-.226.554.554 0 00-.307-.1.469.469 0 00-.369.17 1.358 1.358 0 00-.236.6h-.359a1.521 1.521 0 01.31-.858.837.837 0 01.674-.312.8.8 0 01.433.123 4.088 4.088 0 01.4.29q.167.138.325.246a.534.534 0 00.3.108.477.477 0 00.379-.18 1.335 1.335 0 00.236-.588h.383a1.648 1.648 0 01-.339.87.825.825 0 01-.654.296zm7.225 3.433a3.028 3.028 0 01-.634 2.043 2.19 2.19 0 01-1.751.735 2.267 2.267 0 01-1.239-.339 2.171 2.171 0 01-.821-.974 3.542 3.542 0 01-.287-1.47 3.009 3.009 0 01.634-2.039 2.186 2.186 0 011.741-.73 2.144 2.144 0 011.729.74 3.04 3.04 0 01.628 2.029zm-4.22 0a2.721 2.721 0 00.488 1.711 1.828 1.828 0 002.739 0 2.721 2.721 0 00.484-1.719 2.678 2.678 0 00-.489-1.716 1.663 1.663 0 00-1.375-.61 1.637 1.637 0 00-1.365.607 2.715 2.715 0 00-.482 1.722z" data-name="Caminho 151"/>
  <path fill="#404040" d="M24.632 24.458H1.339v-2.679h23.293a3.983 3.983 0 001.586-.317 4.141 4.141 0 002.185-2.185 3.983 3.983 0 00.317-1.586 4.111 4.111 0 00-.317-1.6 4.221 4.221 0 00-.863-1.322 3.876 3.876 0 00-1.3-.881 4.111 4.111 0 00-1.6-.317H6.766a6.551 6.551 0 01-2.608-.529 7 7 0 01-2.167-1.448A6.647 6.647 0 01.532 9.445 6.638 6.638 0 010 6.802a6.513 6.513 0 01.532-2.626 6.844 6.844 0 011.442-2.132A7.038 7.038 0 014.124.581 6.454 6.454 0 016.767.035h23.294v2.681H6.766a3.768 3.768 0 00-1.6.335 4.787 4.787 0 00-1.269.846 3.664 3.664 0 00-.865 1.248 4.462 4.462 0 00-.352 1.586 4.733 4.733 0 001.267 2.96 3.711 3.711 0 002.819 1.2h17.866a6.638 6.638 0 012.643.529 6.731 6.731 0 013.597 3.596 6.638 6.638 0 01.529 2.643 6.638 6.638 0 01-.529 2.643 7 7 0 01-1.445 2.167 6.664 6.664 0 01-4.795 1.989zm12.581 0V.035h2.678v24.423zm43.312-.035V4.581a1.479 1.479 0 00-.211-.775 2.158 2.158 0 00-.529-.6 2.356 2.356 0 00-.67-.37 1.944 1.944 0 00-.632-.12h-.317a2.546 2.546 0 00-1.11.282 1.908 1.908 0 00-.9 1.092q-.141.317-1.057 2.255-.388.846-1 2.132t-1.519 3.17l-2.114 4.423q-1.214 2.538-2.8 5.885a5.991 5.991 0 01-1.216 1.833 2.226 2.226 0 01-1.6.67h-.564a2.694 2.694 0 01-1.762-.6 5.684 5.684 0 01-1.233-1.868L52.792 4.159a4.426 4.426 0 00-.458-.775 3.207 3.207 0 00-.564-.493 2.053 2.053 0 00-.916-.175h-.422a1.528 1.528 0 00-.722.176 2.55 2.55 0 00-.617.458 2.985 2.985 0 00-.476.617 1.667 1.667 0 00-.229.617v19.838h-2.68V4.44a3.607 3.607 0 01.37-1.6 4.922 4.922 0 011-1.374 5.013 5.013 0 011.463-.987 5.227 5.227 0 011.744-.441l.564-.035a4.238 4.238 0 01.9.088 6.126 6.126 0 01.793.229 2.6 2.6 0 01.793.388 5.561 5.561 0 01.758.634 5.758 5.758 0 01.617.722 2.956 2.956 0 01.372.652 1.626 1.626 0 01.211.458l8.459 17.759a3.1 3.1 0 00.247.458q.176.282.388.282h.211a.767.767 0 00.335-.317q.159-.247.194-.317l.035-.106 8.493-17.761a10.715 10.715 0 01.9-1.463A3.849 3.849 0 0175.912.528a4.46 4.46 0 011-.388 4.566 4.566 0 011.145-.141l.564.035a3.665 3.665 0 011.656.405 5.742 5.742 0 011.445 1.022 5.456 5.456 0 011.04 1.392 3.641 3.641 0 01.441 1.515v20.054z" data-name="Caminho 149"/>
</svg>
