<svg xmlns="http://www.w3.org/2000/svg" xmlns:xlink="http://www.w3.org/1999/xlink" viewBox="0 0 2560 415.6">
  <defs>
    <path id="a" d="M0 148.5l1 266.7h2557.9l2-44s-272.4-56.4-788-9.1c-834 76.6-872-189.5-1564-213.2-38.4-1.3-75.8-1.9-112.1-1.9-33.1.1-65.4.6-96.8 1.5"/>
  </defs>
  <clipPath id="b">
    <use overflow="visible" xlink:href="#a"/>
  </clipPath>
  <linearGradient id="c" x1="1302.024" x2="1304.009" y1="-419.832" y2="-419.832" gradientTransform="matrix(-1290 0 0 1290 1682172 542209.625)" gradientUnits="userSpaceOnUse">
    <stop offset="0" stop-color="#fcb813"/>
    <stop offset=".994" stop-color="#ed1164"/>
    <stop offset="1" stop-color="#ed1164"/>
  </linearGradient>
  <path fill="url(#c)" d="M0 147.1h2560.9v958.6H0z" clip-path="url(#b)"/>
  <g>
    <defs>
      <path id="d" d="M2462.9 34.2c-35.9 0-72.9.9-111 2.8-692 34.7-730 424.3-1563.9 312.2C272.4 280 0 362.6 0 362.6l2 52.6h2557.9l1-378.8c-31.2-1.4-63.2-2.2-96.2-2.2h-1.8z"/>
    </defs>
    <clipPath id="e">
      <use overflow="visible" xlink:href="#d"/>
    </clipPath>
    <linearGradient id="f" x1="1301.334" x2="1303.333" y1="-419.862" y2="-419.862" gradientTransform="translate(-3668954.75 1184114.375) scale(2818.4949)" gradientUnits="userSpaceOnUse">
      <stop offset="0" stop-color="#fcb813"/>
      <stop offset=".994" stop-color="#ed1164"/>
      <stop offset="1" stop-color="#ed1164"/>
    </linearGradient>
    <path fill="url(#f)" d="M0 34.2h2560.9v1404L0 415.3z" clip-path="url(#e)"/>
  </g>
  <path fill="none" d="M-386.3-44H2878v1824.1H-386.3z"/>
</svg>
